<?xml version="1.0" encoding="UTF-8" standalone="no"?>
<svg
   width="182"
   height="56"
   version="1.1"
   id="svg14"
   sodipodi:docname="snap-store-black.svg"
   inkscape:version="1.1.2 (0a00cf5339, 2022-02-04)"
   xmlns:inkscape="http://www.inkscape.org/namespaces/inkscape"
   xmlns:sodipodi="http://sodipodi.sourceforge.net/DTD/sodipodi-0.dtd"
   xmlns="http://www.w3.org/2000/svg"
   xmlns:svg="http://www.w3.org/2000/svg">
  <defs
     id="defs18" />
  <sodipodi:namedview
     id="namedview16"
     pagecolor="#ffffff"
     bordercolor="#666666"
     borderopacity="1.0"
     inkscape:pageshadow="2"
     inkscape:pageopacity="0.0"
     inkscape:pagecheckerboard="0"
     showgrid="false"
     inkscape:zoom="7.6043956"
     inkscape:cx="84.753613"
     inkscape:cy="38.398844"
     inkscape:window-width="1920"
     inkscape:window-height="1016"
     inkscape:window-x="0"
     inkscape:window-y="32"
     inkscape:window-maximized="1"
     inkscape:current-layer="g12" />
  <g
     fill="none"
     fill-rule="evenodd"
     id="g12">
    <g
       fill-rule="nonzero"
       id="g8">
      <path
         d="M 26.99,28.8 V 18.33 l 7.22,3.22 z M 13.2,42.64 22.05,25.97 25.93,29.85 13.2,42.65 Z m -5.05,-31.4 18.22,6.6 V 29.42 L 8.16,11.23 Z"
         fill="#82bea0"
         id="path4" />
      <path
         fill="#fa6441"
         d="M 37.9,17.85 H 27.4 l 13.5,6.02 z"
         id="path6" />
    </g>
    <path
       d="m 56.1,13.9 h 1.17 v 3.9 l -0.41,0.1 a 12.68,12.68 0 0 1 -2.25,0.27 c -0.59,0 -1.12,-0.1 -1.6,-0.29 a 3.4,3.4 0 0 1 -1.23,-0.84 3.8,3.8 0 0 1 -0.8,-1.36 5.57,5.57 0 0 1 -0.28,-1.84 c 0,-0.7 0.1,-1.32 0.31,-1.86 0.22,-0.54 0.5,-1 0.86,-1.36 0.36,-0.37 0.78,-0.65 1.27,-0.84 0.48,-0.2 1,-0.29 1.55,-0.29 a 6.23,6.23 0 0 1 1.75,0.24 3.67,3.67 0 0 1 0.78,0.34 l -0.37,0.97 a 3.14,3.14 0 0 0 -0.92,-0.38 c -0.39,-0.1 -0.78,-0.15 -1.18,-0.15 -0.42,0 -0.8,0.08 -1.16,0.23 -0.34,0.15 -0.64,0.37 -0.88,0.66 -0.25,0.29 -0.44,0.64 -0.57,1.05 a 4.95,4.95 0 0 0 -0.03,2.74 c 0.11,0.41 0.29,0.76 0.52,1.05 0.24,0.3 0.53,0.52 0.88,0.68 0.35,0.16 0.76,0.24 1.23,0.24 A 5.8,5.8 0 0 0 56.11,17 v -3.1 z m 2.58,1 c 0,-0.56 0.08,-1.04 0.24,-1.45 0.16,-0.42 0.37,-0.76 0.63,-1.03 0.27,-0.27 0.57,-0.48 0.91,-0.61 0.35,-0.14 0.7,-0.2 1.06,-0.2 0.84,0 1.48,0.26 1.93,0.78 0.45,0.52 0.67,1.32 0.67,2.4 v 0.39 h -4.28 c 0.05,0.65 0.24,1.14 0.56,1.48 0.33,0.33 0.84,0.5 1.54,0.5 a 4.1,4.1 0 0 0 1.6,-0.3 l 0.15,0.94 a 5.08,5.08 0 0 1 -1.87,0.35 c -0.54,0 -1.01,-0.09 -1.41,-0.25 a 2.63,2.63 0 0 1 -1.55,-1.7 c -0.12,-0.4 -0.18,-0.84 -0.18,-1.3 z m 4.28,-0.62 c 0,-0.5 -0.12,-0.92 -0.38,-1.24 a 1.3,1.3 0 0 0 -1.07,-0.49 1.47,1.47 0 0 0 -1.18,0.54 1.8,1.8 0 0 0 -0.32,0.55 c -0.07,0.21 -0.12,0.42 -0.15,0.64 z m 3.82,-2.52 h 2.36 v 0.94 h -2.36 v 2.88 c 0,0.3 0.02,0.57 0.07,0.77 0.05,0.2 0.12,0.36 0.21,0.48 0.1,0.12 0.22,0.2 0.36,0.25 a 2.37,2.37 0 0 0 1.31,-0.04 l 0.43,-0.17 0.22,0.93 a 4.14,4.14 0 0 1 -1.55,0.33 c -0.42,0 -0.77,-0.05 -1.05,-0.16 -0.27,-0.1 -0.5,-0.27 -0.66,-0.49 a 1.95,1.95 0 0 1 -0.36,-0.8 c -0.07,-0.31 -0.1,-0.68 -0.1,-1.1 v -5.56 l 1.12,-0.2 z M 74.44,18 h -1.11 v -6.24 h 1.11 z M 73.88,10.63 A 0.7,0.7 0 0 1 73.16,9.9 0.7,0.7 0 0 1 73.88,9.17 0.7,0.7 0 0 1 74.6,9.9 0.7,0.7 0 0 1 73.88,10.63 Z m 3.53,1.13 h 2.36 v 0.94 h -2.36 v 2.88 c 0,0.3 0.02,0.57 0.07,0.77 0.05,0.2 0.12,0.36 0.22,0.48 0.1,0.12 0.21,0.2 0.36,0.25 a 2.37,2.37 0 0 0 1.31,-0.04 l 0.43,-0.17 0.21,0.93 a 4.14,4.14 0 0 1 -1.55,0.33 c -0.42,0 -0.77,-0.05 -1.05,-0.16 -0.27,-0.1 -0.5,-0.27 -0.66,-0.49 a 1.95,1.95 0 0 1 -0.36,-0.8 c -0.06,-0.31 -0.1,-0.68 -0.1,-1.1 v -5.56 l 1.12,-0.2 z M 86.4,8.69 a 4.3,4.3 0 0 1 1.34,0.2 l -0.2,0.96 a 2.72,2.72 0 0 0 -1.06,-0.2 c -0.52,0 -0.88,0.14 -1.1,0.42 -0.2,0.29 -0.3,0.67 -0.3,1.15 v 0.54 h 2.4 v 0.94 h -2.4 V 18 h -1.12 v -6.8 c 0,-0.8 0.2,-1.42 0.59,-1.86 0.39,-0.43 1,-0.65 1.85,-0.65 z m 4.5,2.94 a 3.47,3.47 0 0 1 0.7,0.06 10.46,10.46 0 0 1 0.54,0.12 l -0.19,0.97 A 3.74,3.74 0 0 0 89.71,12.76 V 18 h -1.12 v -5.98 a 7.59,7.59 0 0 1 2.3,-0.4 z m 7.83,3.25 c 0,0.5 -0.07,0.94 -0.21,1.34 -0.15,0.4 -0.35,0.75 -0.61,1.04 -0.26,0.28 -0.57,0.5 -0.93,0.66 -0.36,0.16 -0.75,0.24 -1.18,0.24 -0.42,0 -0.81,-0.08 -1.17,-0.24 A 2.67,2.67 0 0 1 93.7,17.26 3.07,3.07 0 0 1 93.1,16.22 c -0.15,-0.4 -0.22,-0.84 -0.22,-1.34 0,-0.49 0.07,-0.93 0.21,-1.34 0.15,-0.4 0.35,-0.75 0.6,-1.04 a 2.93,2.93 0 0 1 2.1,-0.9 c 0.44,0 0.83,0.08 1.19,0.24 0.36,0.15 0.67,0.38 0.93,0.66 0.26,0.3 0.46,0.64 0.6,1.04 0.15,0.4 0.22,0.85 0.22,1.34 z m -1.16,0 c 0,-0.7 -0.16,-1.26 -0.48,-1.67 A 1.54,1.54 0 0 0 95.8,12.59 c -0.54,0 -0.97,0.2 -1.29,0.62 -0.31,0.4 -0.47,0.97 -0.47,1.67 0,0.7 0.16,1.26 0.47,1.67 0.32,0.42 0.75,0.62 1.3,0.62 0.54,0 0.97,-0.2 1.28,-0.62 0.32,-0.4 0.48,-0.97 0.48,-1.67 z m 2.73,-2.94 a 8.71,8.71 0 0 1 2.47,-0.31 c 0.4,0 0.74,0.05 1.01,0.16 0.28,0.1 0.5,0.27 0.69,0.47 a 4.3,4.3 0 0 1 0.7,-0.37 c 0.18,-0.07 0.38,-0.13 0.6,-0.18 0.21,-0.06 0.44,-0.08 0.69,-0.08 0.48,0 0.87,0.07 1.18,0.2 0.3,0.15 0.54,0.35 0.71,0.6 0.17,0.26 0.29,0.56 0.35,0.91 0.06,0.36 0.09,0.74 0.09,1.16 V 18 h -1.12 v -3.26 c 0,-0.37 -0.02,-0.69 -0.05,-0.95 -0.04,-0.27 -0.1,-0.49 -0.2,-0.66 a 0.93,0.93 0 0 0 -0.41,-0.4 2.47,2.47 0 0 0 -1.6,0.02 c -0.24,0.11 -0.41,0.2 -0.5,0.28 a 6.1,6.1 0 0 1 0.2,1.46 V 18 h -1.12 v -3.26 c 0,-0.37 -0.02,-0.69 -0.06,-0.95 a 1.91,1.91 0 0 0 -0.21,-0.66 0.93,0.93 0 0 0 -0.41,-0.4 1.49,1.49 0 0 0 -0.65,-0.12 5.79,5.79 0 0 0 -1.24,0.12 V 18 h -1.12 z m 14.15,-0.18 h 2.37 v 0.94 h -2.37 v 2.88 c 0,0.3 0.03,0.57 0.07,0.77 0.05,0.2 0.12,0.36 0.22,0.48 0.1,0.12 0.22,0.2 0.36,0.25 a 2.37,2.37 0 0 0 1.31,-0.04 l 0.43,-0.17 0.22,0.93 a 4.14,4.14 0 0 1 -1.55,0.33 c -0.43,0 -0.78,-0.05 -1.05,-0.16 -0.28,-0.1 -0.5,-0.27 -0.67,-0.49 a 1.95,1.95 0 0 1 -0.35,-0.8 c -0.07,-0.31 -0.1,-0.68 -0.1,-1.1 v -5.56 l 1.11,-0.2 z M 118.23,18 V 8.88 l 1.12,-0.2 v 3.2 a 3.78,3.78 0 0 1 1.37,-0.25 c 0.5,0 0.9,0.07 1.23,0.2 0.33,0.15 0.6,0.34 0.79,0.6 0.2,0.25 0.33,0.55 0.41,0.9 0.08,0.35 0.12,0.74 0.12,1.17 V 18 h -1.11 v -3.26 c 0,-0.39 -0.03,-0.72 -0.08,-0.99 -0.05,-0.27 -0.14,-0.49 -0.26,-0.66 a 1.02,1.02 0 0 0 -0.48,-0.36 2.1,2.1 0 0 0 -0.74,-0.12 7.99,7.99 0 0 0 -1.25,0.2 V 18 Z m 6.5,-3.1 c 0,-0.56 0.09,-1.04 0.25,-1.45 0.16,-0.42 0.37,-0.76 0.63,-1.03 0.27,-0.27 0.57,-0.48 0.91,-0.61 0.35,-0.14 0.7,-0.2 1.06,-0.2 0.84,0 1.48,0.26 1.93,0.78 0.45,0.52 0.67,1.32 0.67,2.4 v 0.39 h -4.28 c 0.05,0.65 0.24,1.14 0.56,1.48 0.33,0.33 0.84,0.5 1.54,0.5 a 4.1,4.1 0 0 0 1.6,-0.3 l 0.15,0.94 a 5.08,5.08 0 0 1 -1.87,0.35 c -0.54,0 -1.01,-0.09 -1.41,-0.25 a 2.63,2.63 0 0 1 -1.55,-1.7 c -0.12,-0.4 -0.18,-0.84 -0.18,-1.3 z m 4.29,-0.62 c 0,-0.5 -0.12,-0.92 -0.38,-1.24 a 1.3,1.3 0 0 0 -1.07,-0.49 1.47,1.47 0 0 0 -1.18,0.54 1.8,1.8 0 0 0 -0.32,0.55 c -0.07,0.21 -0.12,0.42 -0.15,0.64 z M 55.93,39.34 c 2.43,0 3.65,-0.83 3.65,-2.5 0,-0.5 -0.11,-0.94 -0.33,-1.3 -0.21,-0.36 -0.5,-0.67 -0.87,-0.94 -0.37,-0.26 -0.8,-0.49 -1.26,-0.68 -0.48,-0.2 -0.98,-0.38 -1.5,-0.58 -0.61,-0.2 -1.19,-0.44 -1.73,-0.7 A 6.05,6.05 0 0 1 52.47,31.7 c -0.4,-0.36 -0.71,-0.79 -0.95,-1.28 -0.23,-0.5 -0.34,-1.1 -0.34,-1.8 0,-1.46 0.5,-2.6 1.48,-3.41 1,-0.82 2.36,-1.23 4.1,-1.23 1.02,0 1.93,0.11 2.76,0.33 0.82,0.21 1.42,0.45 1.8,0.7 l -0.74,1.9 A 8.05,8.05 0 0 0 56.76,26 c -0.44,0 -0.86,0.05 -1.24,0.14 -0.38,0.1 -0.72,0.24 -1,0.44 -0.3,0.19 -0.52,0.43 -0.7,0.73 -0.16,0.3 -0.24,0.64 -0.24,1.04 0,0.45 0.08,0.83 0.26,1.13 0.18,0.3 0.42,0.57 0.74,0.8 0.32,0.24 0.7,0.45 1.12,0.64 0.42,0.2 0.9,0.38 1.4,0.58 0.72,0.28 1.38,0.57 1.98,0.86 0.6,0.29 1.12,0.63 1.56,1.03 0.44,0.4 0.78,0.88 1.02,1.43 0.24,0.55 0.36,1.22 0.36,2 0,1.46 -0.53,2.58 -1.6,3.36 -1.06,0.79 -2.56,1.18 -4.5,1.18 a 11.54,11.54 0 0 1 -5.13,-1.18 l 0.7,-1.92 a 8.63,8.63 0 0 0 4.44,1.08 z m 8.76,-10.46 c 0.51,-0.13 1.19,-0.26 2.04,-0.4 0.85,-0.15 1.82,-0.22 2.93,-0.22 0.99,0 1.81,0.14 2.47,0.42 0.65,0.28 1.18,0.67 1.57,1.17 0.4,0.5 0.67,1.11 0.83,1.81 0.16,0.7 0.24,1.48 0.24,2.33 V 41 h -2.23 v -6.53 c 0,-0.77 -0.06,-1.42 -0.16,-1.97 -0.1,-0.54 -0.28,-0.98 -0.52,-1.32 A 2.04,2.04 0 0 0 70.9,30.45 C 70.5,30.3 70,30.22 69.42,30.22 a 11.93,11.93 0 0 0 -2.1,0.17 l -0.4,0.07 V 41 h -2.23 z m 18,10.51 c 0.53,0 1,-0.01 1.4,-0.03 0.41,-0.03 0.75,-0.07 1.02,-0.14 V 35.5 a 2.86,2.86 0 0 0 -0.78,-0.2 8.68,8.68 0 0 0 -2.37,-0.01 3.3,3.3 0 0 0 -1.04,0.3 c -0.3,0.15 -0.57,0.36 -0.78,0.62 -0.2,0.27 -0.3,0.61 -0.3,1.05 0,0.8 0.25,1.35 0.76,1.66 a 4,4 0 0 0 2.09,0.47 z m -0.2,-11.18 c 0.9,0 1.66,0.11 2.27,0.35 0.62,0.23 1.12,0.56 1.5,0.98 0.37,0.42 0.64,0.93 0.8,1.51 0.16,0.59 0.24,1.23 0.24,1.93 v 7.8 l -0.8,0.14 a 23.37,23.37 0 0 1 -2.58,0.28 c -0.5,0.04 -1,0.06 -1.5,0.06 -0.7,0 -1.35,-0.07 -1.94,-0.21 -0.6,-0.15 -1.1,-0.37 -1.54,-0.69 a 3.13,3.13 0 0 1 -1,-1.23 4.33,4.33 0 0 1 -0.36,-1.85 3.35,3.35 0 0 1 1.56,-2.98 c 0.48,-0.3 1.04,-0.52 1.68,-0.67 a 9.16,9.16 0 0 1 3.4,-0.08 40.87,40.87 0 0 1 0.9,0.18 V 33.1 c 0,-0.36 -0.05,-0.73 -0.13,-1.09 a 2.5,2.5 0 0 0 -0.43,-0.96 c -0.2,-0.28 -0.5,-0.5 -0.85,-0.67 a 3.34,3.34 0 0 0 -1.4,-0.25 c -0.74,0 -1.39,0.05 -1.94,0.15 -0.55,0.1 -0.96,0.22 -1.23,0.33 l -0.27,-1.85 c 0.29,-0.13 0.77,-0.25 1.44,-0.37 0.67,-0.12 1.4,-0.18 2.19,-0.18 z m 17.17,6.57 c 0,-1.45 -0.36,-2.57 -1.08,-3.36 A 3.72,3.72 0 0 0 95.7,30.25 c -0.68,0 -1.2,0.02 -1.58,0.07 -0.37,0.05 -0.67,0.1 -0.9,0.17 v 7.87 c 0.28,0.22 0.67,0.44 1.18,0.65 a 4.42,4.42 0 0 0 3.32,-0.04 c 0.46,-0.23 0.83,-0.55 1.12,-0.96 0.29,-0.4 0.5,-0.89 0.62,-1.44 0.13,-0.55 0.2,-1.15 0.2,-1.79 z m 2.32,0 a 8.8,8.8 0 0 1 -0.37,2.62 c -0.25,0.8 -0.61,1.49 -1.09,2.06 a 4.96,4.96 0 0 1 -1.76,1.35 c -0.7,0.32 -1.5,0.48 -2.4,0.48 a 5.8,5.8 0 0 1 -3.14,-0.84 v 4.99 H 91 V 28.9 l 1.98,-0.42 c 0.8,-0.15 1.71,-0.22 2.75,-0.22 a 7,7 0 0 1 2.6,0.45 5.55,5.55 0 0 1 3.22,3.35 c 0.3,0.8 0.44,1.72 0.44,2.72 z m 12.7,4.56 c 2.43,0 3.65,-0.83 3.65,-2.5 0,-0.5 -0.11,-0.94 -0.33,-1.3 -0.21,-0.36 -0.5,-0.67 -0.87,-0.94 -0.37,-0.26 -0.79,-0.49 -1.26,-0.68 -0.47,-0.2 -0.97,-0.38 -1.5,-0.58 -0.61,-0.2 -1.19,-0.44 -1.73,-0.7 a 6.05,6.05 0 0 1 -1.42,-0.94 c -0.4,-0.36 -0.71,-0.79 -0.94,-1.28 -0.24,-0.5 -0.35,-1.1 -0.35,-1.8 0,-1.46 0.5,-2.6 1.49,-3.41 0.99,-0.82 2.36,-1.23 4.1,-1.23 1,0 1.92,0.11 2.75,0.33 0.82,0.21 1.43,0.45 1.81,0.7 l -0.74,1.9 A 8.05,8.05 0 0 0 115.52,26 c -0.45,0 -0.86,0.05 -1.25,0.14 -0.38,0.1 -0.72,0.24 -1,0.44 -0.3,0.19 -0.52,0.43 -0.69,0.73 -0.17,0.3 -0.25,0.64 -0.25,1.04 0,0.45 0.09,0.83 0.26,1.13 0.18,0.3 0.43,0.57 0.75,0.8 0.32,0.24 0.69,0.45 1.11,0.64 0.43,0.2 0.9,0.38 1.4,0.58 0.73,0.28 1.39,0.57 1.99,0.86 0.6,0.29 1.12,0.63 1.56,1.03 0.44,0.4 0.78,0.88 1.02,1.43 0.24,0.55 0.36,1.22 0.36,2 0,1.46 -0.54,2.58 -1.6,3.36 -1.06,0.79 -2.56,1.18 -4.5,1.18 a 11.54,11.54 0 0 1 -5.14,-1.18 l 0.7,-1.92 a 8.63,8.63 0 0 0 4.44,1.08 z m 10.85,-10.82 h 4.73 v 1.87 h -4.73 v 5.76 c 0,0.63 0.05,1.14 0.14,1.55 0.1,0.4 0.24,0.73 0.43,0.96 0.2,0.23 0.44,0.4 0.72,0.5 a 4.74,4.74 0 0 0 2.63,-0.08 l 0.85,-0.34 0.44,1.85 c -0.23,0.11 -0.62,0.25 -1.18,0.42 -0.56,0.17 -1.2,0.25 -1.92,0.25 -0.85,0 -1.55,-0.1 -2.1,-0.32 -0.55,-0.22 -1,-0.54 -1.33,-0.97 a 3.9,3.9 0 0 1 -0.71,-1.6 c -0.14,-0.63 -0.2,-1.36 -0.2,-2.2 V 25.05 l 2.23,-0.38 v 3.86 z m 18.24,6.24 c 0,1 -0.15,1.89 -0.43,2.69 -0.3,0.8 -0.7,1.49 -1.22,2.06 a 5.33,5.33 0 0 1 -1.86,1.33 c -0.72,0.32 -1.5,0.47 -2.35,0.47 -0.85,0 -1.63,-0.15 -2.35,-0.47 a 5.33,5.33 0 0 1 -1.86,-1.33 6.15,6.15 0 0 1 -1.21,-2.06 7.9,7.9 0 0 1 -0.43,-2.69 c 0,-0.98 0.14,-1.87 0.43,-2.68 0.29,-0.8 0.69,-1.5 1.21,-2.07 a 5.33,5.33 0 0 1 1.86,-1.33 c 0.72,-0.32 1.5,-0.47 2.35,-0.47 0.85,0 1.63,0.15 2.35,0.47 0.72,0.3 1.34,0.75 1.86,1.33 0.52,0.57 0.93,1.27 1.22,2.07 0.28,0.81 0.43,1.7 0.43,2.68 z m -2.33,0 c 0,-1.4 -0.32,-2.52 -0.95,-3.35 a 3.08,3.08 0 0 0 -2.58,-1.23 c -1.09,0 -1.95,0.4 -2.58,1.23 a 5.37,5.37 0 0 0 -0.95,3.35 c 0,1.4 0.32,2.52 0.95,3.35 0.63,0.82 1.5,1.23 2.58,1.23 1.09,0 1.95,-0.4 2.58,-1.23 0.63,-0.83 0.95,-1.94 0.95,-3.35 z m 10.08,-6.5 a 6.94,6.94 0 0 1 1.4,0.13 20.92,20.92 0 0 1 1.1,0.23 l -0.39,1.94 a 7.48,7.48 0 0 0 -4.49,-0.05 V 41 h -2.23 V 29.05 c 0.53,-0.2 1.19,-0.37 1.97,-0.54 0.78,-0.17 1.66,-0.25 2.64,-0.25 z m 3.96,6.52 c 0,-1.1 0.16,-2.06 0.48,-2.89 0.32,-0.82 0.74,-1.5 1.27,-2.05 a 5.16,5.16 0 0 1 1.83,-1.22 5.7,5.7 0 0 1 2.1,-0.41 c 1.69,0 2.98,0.52 3.87,1.57 0.9,1.05 1.35,2.64 1.35,4.79 v 0.37 c 0,0.15 -0.01,0.3 -0.03,0.42 h -8.54 c 0.1,1.3 0.47,2.28 1.13,2.95 0.65,0.67 1.68,1.01 3.07,1.01 a 8.19,8.19 0 0 0 3.19,-0.6 l 0.31,1.87 c -0.27,0.15 -0.75,0.3 -1.43,0.46 -0.68,0.16 -1.45,0.24 -2.31,0.24 a 7.35,7.35 0 0 1 -2.82,-0.5 5.26,5.26 0 0 1 -3.1,-3.4 8.68,8.68 0 0 1 -0.37,-2.6 z m 8.57,-1.22 c 0.01,-1 -0.24,-1.84 -0.76,-2.48 a 2.6,2.6 0 0 0 -2.15,-0.98 2.94,2.94 0 0 0 -2.35,1.08 c -0.27,0.32 -0.48,0.7 -0.63,1.1 -0.16,0.42 -0.26,0.85 -0.3,1.28 z"
       fill="#ffffff"
       id="path10" />
  </g>
</svg>
