<?xml version="1.0" encoding="UTF-8" standalone="no"?>
<!-- Created with Inkscape (http://www.inkscape.org/) -->

<svg
   xmlns:dc="http://purl.org/dc/elements/1.1/"
   xmlns:cc="http://creativecommons.org/ns#"
   xmlns:rdf="http://www.w3.org/1999/02/22-rdf-syntax-ns#"
   xmlns:svg="http://www.w3.org/2000/svg"
   xmlns="http://www.w3.org/2000/svg"
   xmlns:xlink="http://www.w3.org/1999/xlink"
   xmlns:sodipodi="http://sodipodi.sourceforge.net/DTD/sodipodi-0.dtd"
   xmlns:inkscape="http://www.inkscape.org/namespaces/inkscape"
   width="24"
   height="24"
   viewBox="0 0 6.3500002 6.3500001"
   version="1.1"
   id="svg3855"
   inkscape:version="0.92.5 (2060ec1f9f, 2020-04-08)"
   sodipodi:docname="email.svg">
  <defs
     id="defs3849">
    <linearGradient
       gradientTransform="matrix(0.04179476,0,0,0.03902572,28.452871,225.48239)"
       inkscape:collect="always"
       xlink:href="#outerBackgroundGradient-7"
       id="linearGradient3920"
       x1="144"
       y1="265"
       x2="144"
       y2="46"
       gradientUnits="userSpaceOnUse" />
    <linearGradient
       id="outerBackgroundGradient-7">
      <stop
         style="stop-color:#f3f3f2;stop-opacity:1;"
         offset="0"
         id="stop3864-8-6-4" />
      <stop
         style="stop-color:#fefdf4;stop-opacity:1;"
         offset="1"
         id="stop3866-9-1-2" />
    </linearGradient>
    <linearGradient
       y2="0.00048828119"
       x2="256.00049"
       y1="512"
       x1="256.00049"
       gradientUnits="userSpaceOnUse"
       id="linearGradient3867">
      <stop
         id="stop3869"
         style="stop-color:#e48c11;stop-opacity:1;"
         offset="0" />
      <stop
         id="stop3875"
         style="stop-color:#ffdb67;stop-opacity:1;"
         offset="1" />
    </linearGradient>
  </defs>
  <sodipodi:namedview
     id="base"
     pagecolor="#ffffff"
     bordercolor="#666666"
     borderopacity="1.0"
     inkscape:pageopacity="0.0"
     inkscape:pageshadow="2"
     inkscape:zoom="15.839192"
     inkscape:cx="0.28379524"
     inkscape:cy="15.046322"
     inkscape:document-units="mm"
     inkscape:current-layer="layer1"
     showgrid="false"
     inkscape:window-width="1920"
     inkscape:window-height="1023"
     inkscape:window-x="0"
     inkscape:window-y="32"
     inkscape:window-maximized="1"
     units="px" />
  <metadata
     id="metadata3852">
    <rdf:RDF>
      <cc:Work
         rdf:about="">
        <dc:format>image/svg+xml</dc:format>
        <dc:type
           rdf:resource="http://purl.org/dc/dcmitype/StillImage" />
        <dc:title></dc:title>
      </cc:Work>
    </rdf:RDF>
  </metadata>
  <g
     inkscape:label="Layer 1"
     inkscape:groupmode="layer"
     id="layer1"
     transform="translate(-31.296306,-228.43512)">
    <path
       sodipodi:nodetypes="cscscccccscsccccc"
       inkscape:connector-curvature="0"
       style="color:#000000;font-style:normal;font-variant:normal;font-weight:normal;font-stretch:normal;line-height:normal;font-family:Sans;-inkscape-font-specification:Sans;text-indent:0;text-align:start;text-decoration:none;text-decoration-line:none;letter-spacing:normal;word-spacing:normal;text-transform:none;writing-mode:lr-tb;direction:ltr;baseline-shift:baseline;text-anchor:start;display:inline;overflow:visible;visibility:visible;opacity:0.1;fill:none;stroke:#000000;stroke-width:0.08077299;stroke-miterlimit:4;stroke-dasharray:none;stroke-opacity:1;marker:none;enable-background:accumulate"
       clip-path="none"
       d="m 31.754793,229.26796 c 0,0 -0.417937,0 -0.417937,0.39025 v 3.90248 c 0,0 -0.01959,0.39024 0.398346,0.39024 h 0.228561 l 0.334228,5e-5 h 4.346654 l 0.334374,-5e-5 h 0.208969 c 0,0 0.417938,0 0.417938,-0.39024 v -3.90248 c 0,0 0,-0.39025 -0.417938,-0.39025 h -0.208969 l -0.334374,4e-5 -4.327063,2e-5 -0.353819,-6e-5 z"
       id="path3985" />
    <path
       sodipodi:nodetypes="cscscccccscsccccc"
       inkscape:connector-curvature="0"
       style="color:#000000;font-style:normal;font-variant:normal;font-weight:normal;font-stretch:normal;line-height:normal;font-family:Sans;-inkscape-font-specification:Sans;text-indent:0;text-align:start;text-decoration:none;text-decoration-line:none;letter-spacing:normal;word-spacing:normal;text-transform:none;writing-mode:lr-tb;direction:ltr;baseline-shift:baseline;text-anchor:start;display:inline;overflow:visible;visibility:visible;opacity:0.2;fill:#000000;fill-opacity:1;stroke:none;stroke-width:0.04038649;marker:none;enable-background:accumulate"
       clip-path="none"
       d="m 31.754793,229.26794 c 0,0 -0.417937,0 -0.417937,0.39025 v 3.90248 c 0,0 -0.01959,0.39024 0.398346,0.39024 h 0.228561 l 0.334228,5e-5 h 4.346654 l 0.334374,-5e-5 h 0.208969 c 0,0 0.417938,0 0.417938,-0.39024 v -3.90248 c 0,0 0,-0.39025 -0.417938,-0.39025 h -0.208969 l -0.334374,4e-5 -4.327063,2e-5 -0.353819,-6e-5 z"
       id="path3934" />
    <path
       id="path4018"
       d="m 31.754793,229.22892 c 0,0 -0.417937,0 -0.417937,0.39025 v 3.90248 c 0,0 -0.01959,0.39024 0.398346,0.39024 h 0.228561 l 0.334228,4e-5 h 4.346654 l 0.334374,-4e-5 h 0.208969 c 0,0 0.417938,0 0.417938,-0.39024 v -3.90248 c 0,0 0,-0.39025 -0.417938,-0.39025 h -0.208969 l -0.334374,4e-5 -4.327063,1e-5 -0.353819,-5e-5 z"
       clip-path="none"
       style="color:#000000;font-style:normal;font-variant:normal;font-weight:normal;font-stretch:normal;line-height:normal;font-family:Sans;-inkscape-font-specification:Sans;text-indent:0;text-align:start;text-decoration:none;text-decoration-line:none;letter-spacing:normal;word-spacing:normal;text-transform:none;writing-mode:lr-tb;direction:ltr;baseline-shift:baseline;text-anchor:start;display:inline;overflow:visible;visibility:visible;opacity:1;fill:url(#linearGradient3920);fill-opacity:1;stroke:none;stroke-width:0.04038649;marker:none;enable-background:accumulate"
       inkscape:connector-curvature="0"
       sodipodi:nodetypes="cscscccccscsccccc" />
    <path
       style="color:#000000;font-style:normal;font-variant:normal;font-weight:normal;font-stretch:normal;font-size:medium;line-height:normal;font-family:Sans;-inkscape-font-specification:Sans;text-indent:0;text-align:start;text-decoration:none;text-decoration-line:none;letter-spacing:normal;word-spacing:normal;text-transform:none;writing-mode:lr-tb;direction:ltr;baseline-shift:baseline;text-anchor:start;display:inline;overflow:visible;visibility:visible;opacity:0.4;fill:#000000;fill-opacity:1;stroke:none;stroke-width:0.04038649px;marker:none;enable-background:accumulate"
       d="m 31.754659,229.92158 1.901661,1.67657 -1.765828,1.62109 1.871948,-1.53785 0.619739,0.49148 0.08914,0.0714 0.08914,-0.0714 0.619739,-0.49148 1.871948,1.53785 -1.765829,-1.62109 1.901661,-1.67657 -2.716659,1.98969 z"
       id="path3880"
       inkscape:connector-curvature="0"
       sodipodi:nodetypes="ccccccccccccc" />
    <path
       inkscape:connector-curvature="0"
       style="color:#000000;font-style:normal;font-variant:normal;font-weight:normal;font-stretch:normal;line-height:normal;font-family:Sans;-inkscape-font-specification:Sans;text-indent:0;text-align:start;text-decoration:none;text-decoration-line:none;letter-spacing:normal;word-spacing:normal;text-transform:none;writing-mode:lr-tb;direction:ltr;baseline-shift:baseline;text-anchor:start;display:inline;overflow:visible;visibility:visible;fill:#ffffff;fill-opacity:1;stroke:none;stroke-width:0.04038649;marker:none;enable-background:accumulate"
       clip-path="none"
       d="m 31.754659,229.22887 c 0,0 -0.417947,1e-5 -0.417947,0.39025 v 0.0391 c 0,-0.39026 0.417947,-0.39027 0.417947,-0.39027 h 0.208975 0.353949 4.327062 0.33436 0.208973 c 0.417938,0 0.417948,0.39027 0.417948,0.39027 v -0.0391 c 0,0 -10e-6,-0.39025 -0.417948,-0.39025 h -0.208973 -0.33436 -4.327062 -0.353949 z"
       id="path3949" />
  </g>
</svg>
