<?xml version="1.0" ?><!DOCTYPE svg  PUBLIC '-//W3C//DTD SVG 1.1//EN'  'http://www.w3.org/Graphics/SVG/1.1/DTD/svg11.dtd'><svg enable-background="new 0 0 512 512" id="Layer_1" version="1.1" viewBox="0 0 512 512" xml:space="preserve" xmlns="http://www.w3.org/2000/svg" xmlns:xlink="http://www.w3.org/1999/xlink"><circle cx="256" cy="256" fill="#f5f5f5" id="ellipse" r="256"/><path d="M416,209.6c0,4-0.3,11.7-0.9,23.1c-0.6,11.5-2,22.7-4.1,33.8c-2.1,11.1-5.9,23.5-11.6,37.2  c-5.6,13.8-12.5,26.2-20.6,37.2c-8.1,11-19.3,21.5-33.4,31.3c-14.2,9.8-30.2,16.8-48.1,21c-9.6,2.5-19.4,4-29.4,4.4  c-0.4,0-1.2,0.2-2.5,0.6c-8.3,0.4-16.7,0.4-25,0c-51.7-4.2-91-29.6-118.1-76.3c-12.5-22.1-19.6-43.2-21.3-63.2  c-1.3,5.8-2.1,10.9-2.5,15c-1.3-23.8,0.6-43.2,5.6-58.2c-3.8,6.3-6.5,12.1-8.1,17.5c3.3-18.8,7.7-33.6,13.1-44.4  c0.4-2.5,2.9-7.1,7.5-13.8c0-0.8,0-1.5,0-1.9c-0.8-11.7,0.3-22.2,3.4-31.6c3.1-9.4,5.7-15.2,7.8-17.5c2.1-2.3,3.8-4.1,5-5.3  c0.4,10,5.6,19.6,15.6,28.8c2.5,0.4,4.8,0.6,6.9,0.6c10.4-2.1,21.3-1.9,32.5,0.6c6.6-8.4,16.9-14,30.6-16.9l11.9-0.6  c-12.1,7.1-19.4,17.3-21.9,30.6c4.6,9.6,10.6,14.4,18.1,14.4c6.3,0,10.8,0,13.8,0c7.1,0,10.8,0.6,11.3,1.9v0.6v0.6  c0.4,0.4,0.4,1,0,1.9v0.6v0.6c-0.4,4.2-1.9,7.3-4.4,9.4c-0.4,0-0.6,0.1-0.6,0.3c0,0.2-0.2,0.3-0.6,0.3c0,0.4-1.9,1.7-5.6,3.8  c-5,3.3-9,6-11.9,8.1c-5.4,3.3-8.1,5.6-8.1,6.9v0.6h-0.6c1.3,2.5,2.1,5.6,2.5,9.4c0.8,3.8,1,6,0.6,6.9c0,2.1,0,4,0,5.6  c-5-2.5-9.8-4.2-14.4-5c-5.9,2.5-9.2,5.2-10,8.1c-0.4,1.7-0.9,3.3-1.3,5c0,7.9,5.6,15.2,16.9,21.9c4.6,2.9,9.3,4.6,14.1,5  c4.8,0.4,8.5,0.2,11.3-0.6c2.7-0.8,6-2.1,10-3.8c4-1.7,6.8-2.7,8.4-3.1c12.5-3.3,22.7-0.4,30.6,8.8c2.5,2.5,3,4.9,1.6,7.2  c-1.5,2.3-3.7,3-6.6,2.2c-1.2,0.4-2.1,0.5-2.5,0.3c-0.4-0.2-1.4,0-2.8,0.6c-1.5,0.6-2.5,1-3.1,1.3c-0.6,0.2-1.7,0.8-3.1,1.9  c-1.5,1.1-2.6,1.8-3.4,2.2c-0.8,0.4-2.2,1.4-4.1,2.8s-3.4,2.4-4.7,2.8c-5,3.8-12.2,6.5-21.6,8.1c-9.4,1.7-17.2,1.7-23.4,0  c5,3.8,9,6.5,11.9,8.1c2.9,1.7,7.7,4.3,14.4,7.8c6.6,3.5,12.4,5.9,17.2,6.9c4.8,1,10.8,1.6,18.1,1.6s14-1.3,20-3.8  c6-2.5,12.5-6.8,19.4-12.8c6.9-6,13.4-13.6,19.7-22.8c1.3-2.1,2.1-3.3,2.5-3.8c0.8,0-0.2,5.6-3.1,16.9c-1.3,5.8-1.7,8.8-1.3,8.8  c7.1-5,12-14.6,14.7-28.8c2.7-14.2,3-27.9,0.9-41.3c5,2.1,8.5,6,10.6,11.9l1.3,1.3c2.5-7.9,4-18.3,4.4-31  c0.4-12.7-0.8-23.3-3.8-31.6c5.4,1.7,10.4,7.1,15,16.3c-1.3-6.7-3.1-12.8-5.6-18.5c-2.5-5.6-5.3-10.4-8.4-14.4  c-3.1-4-6.5-7.7-10-11.3c-3.5-3.5-7.2-6.5-10.9-8.8c-3.8-2.3-7.4-4.4-10.9-6.3c-3.5-1.9-6.9-3.3-10-4.4c-3.1-1-5.9-1.9-8.4-2.5  c-2.5-0.6-4.4-1-5.6-1.3c-1.3-0.2-1.7-0.3-1.3-0.3c10.4-2.9,21-4.4,31.9-4.4c-1.3-2-3.7-3.9-7.2-5.6c-3.5-1.7-7.4-3.1-11.6-4.4  c-4.2-1.3-8.2-2.3-12.2-3.1c-4-0.8-8.6-1.9-14.1-3.1h-0.6h1.2c11.7-3.3,30-0.8,55,7.5c9.2,2.9,17.5,8.2,25,16  c7.5,7.7,12.2,13.4,14.1,17.2c1.9,3.8,3.2,6.9,4.1,9.4v-2.5c0.4-2.1,0.1-5.3-0.9-9.7c-1-4.4-2.6-9.1-4.7-14.1c0.4,0,1,0.3,1.9,0.9  c0.8,0.6,2.4,2.9,4.7,6.9c2.3,4,4.9,9.7,7.8,17.2c4.6,11.3,8.5,31.5,11.9,60.7l3.8-23.8C415.8,202.7,416,205.7,416,209.6z" fill="#FFFFFF" id="logo"/></svg>
